<svg width="1246" height="572" viewBox="0 0 1246 572" fill="none" xmlns="http://www.w3.org/2000/svg">
<g clip-path="url(#clip0_69_127)">
<path d="M1246.25 278.05L1106.44 440.043L1106.44 521.039L1246.25 640.847L1180.56 748.842L1224.35 910.835L981.791 893.96L981.791 1001.96L825.136 1034.02L651.636 959.77L587.626 1109.95L144.612 1169.01L144.612 850.087L36.8062 807.902L36.8062 575.037L112.607 467.042L-0.252085 218.99L80.6023 137.994L291.16 137.994L404.02 56.9977L587.626 137.994L771.233 137.994L825.136 3.0001L1106.44 3.00012L1246.25 278.05Z" stroke="#222222"/>
<path d="M674.734 525.06L689.695 554.355L689.695 592.996L661.395 619.955L626.064 626.964L619.215 642.96L571.807 649.25L571.807 615.282L568.382 574.484L556.305 548.065L564.957 539.438L587.49 539.438L638.863 539.438L644.631 525.06L674.734 525.06Z" stroke="#222222"/>
<path d="M1203.44 298.178L1074.96 448.836L1074.96 526.575L1202.93 638.203L1141.2 738.927L1180.27 888.729L955.003 873.422L954.476 974.34L808.048 1004.18L646.071 935.884L586.985 1073.21L178.049 1126.42L177.917 830.456L78.2724 789.946L77.3434 572.962L147.646 472.942L43.8014 243.64L119.303 168.874L314.531 168.874L422.66 94.1084L592.365 168.321L762.07 167.768L812.984 43.1584L1073.81 43.1584L1203.44 298.178Z" stroke="#222222" stroke-width="1.5"/>
<path d="M1160.63 318.305L1043.48 457.63L1043.48 532.11L1159.6 635.559L1101.84 729.013L1136.18 866.623L928.214 852.884L927.16 946.725L790.959 974.338L640.505 911.998L586.343 1036.46L211.484 1083.82L211.221 810.825L119.737 771.991L117.879 570.887L182.684 478.843L87.8533 268.29L158.002 199.755L337.9 199.755L441.299 131.219L597.103 198.649L752.906 197.543L800.832 83.3169L1041.18 83.3169L1160.63 318.305Z" stroke="#222222" stroke-width="1.5"/>
<path d="M1117.82 338.433L1012 466.423L1012 537.645L1116.28 632.915L1062.48 719.099L1092.09 844.518L901.427 832.346L899.846 919.111L773.872 944.499L634.94 888.112L585.702 999.716L244.922 1041.23L244.527 791.194L161.204 754.036L158.417 568.813L217.724 484.744L131.907 292.94L196.703 230.635L361.27 230.635L459.94 168.33L601.842 228.976L743.743 227.317L788.681 123.476L1008.54 123.476L1117.82 338.433Z" stroke="#222222" stroke-width="1.5"/>
<path d="M1075 358.56L980.514 475.216L980.514 543.18L1072.95 630.271L1023.12 709.185L1048 822.412L874.639 811.808L872.531 891.496L756.784 914.659L629.375 864.226L585.061 962.971L278.359 998.633L277.832 771.563L202.67 736.081L198.954 566.738L252.763 490.645L175.96 317.59L235.403 261.515L384.641 261.515L478.581 205.441L606.581 259.303L734.58 257.091L776.529 163.634L975.91 163.634L1075 358.56Z" stroke="#222222" stroke-width="1.5"/>
<path d="M1032.19 378.688L949.031 484.009L949.031 548.715L1029.63 627.627L983.756 699.27L1003.91 800.306L847.85 791.27L845.215 863.88L739.695 884.82L623.809 840.339L584.419 926.226L311.794 956.038L311.136 751.932L244.135 718.126L239.49 564.663L287.801 496.546L220.013 342.239L274.102 292.396L408.01 292.396L497.22 242.552L611.318 289.631L725.416 286.866L764.376 203.792L943.277 203.792L1032.19 378.688Z" stroke="#222222" stroke-width="1.5"/>
<path d="M989.379 398.815L917.549 492.803L917.549 554.25L986.301 624.983L944.396 689.356L959.826 778.2L821.062 770.732L817.9 836.265L722.607 854.981L618.244 816.453L583.777 889.481L345.231 913.444L344.441 732.301L285.601 700.171L280.027 562.588L322.84 502.446L264.066 366.889L312.803 323.276L431.38 323.276L515.861 279.663L616.057 319.958L716.253 316.64L752.225 243.951L910.644 243.951L989.379 398.815Z" stroke="#222222" stroke-width="1.5"/>
<path d="M946.568 418.943L886.068 501.596L886.068 559.785L942.977 622.339L905.037 679.441L915.738 756.094L794.274 750.193L790.586 808.65L705.52 825.141L612.68 792.567L583.137 852.736L378.668 870.849L377.746 712.67L327.068 682.215L320.565 560.513L357.879 508.347L308.12 391.539L351.504 354.156L454.751 354.156L534.502 316.773L620.796 350.285L707.091 346.414L740.074 284.109L878.012 284.109L946.568 418.943Z" stroke="#222222" stroke-width="1.5"/>
<path d="M903.756 439.07L854.586 510.389L854.586 565.32L899.652 619.695L865.677 669.527L871.651 733.988L767.486 729.655L763.271 781.035L688.432 795.302L607.115 768.681L582.495 815.991L412.105 828.254L411.051 693.038L368.534 664.26L361.102 558.438L392.918 514.247L352.173 416.189L390.204 385.036L478.121 385.036L553.142 353.884L625.535 380.612L697.928 376.188L727.922 324.267L845.379 324.267L903.756 439.07Z" stroke="#222222" stroke-width="1.5"/>
<path d="M860.943 459.198L823.103 519.182L823.103 570.856L856.326 617.051L826.316 659.613L827.562 711.883L740.697 709.117L735.955 753.42L671.343 765.463L601.548 744.795L581.853 779.246L445.541 785.66L444.355 673.408L409.999 646.305L401.638 556.364L427.956 520.148L396.225 440.839L428.903 415.917L501.49 415.917L571.782 390.995L630.273 410.94L688.764 405.963L715.77 364.426L812.745 364.426L860.943 459.198Z" stroke="#222222" stroke-width="1.5"/>
<path d="M818.131 479.325L791.621 527.975L791.621 576.391L813.001 614.407L786.956 649.698L783.474 689.777L713.909 688.579L708.64 725.805L654.255 735.623L595.983 720.909L581.212 742.501L478.978 743.066L477.661 653.777L451.465 628.35L442.175 554.289L462.995 526.049L440.279 465.488L467.604 446.797L524.86 446.797L590.422 428.106L635.012 441.267L679.601 435.737L703.618 404.585L780.113 404.585L818.131 479.325Z" stroke="#222222" stroke-width="1.5"/>
<path d="M775.32 499.453L760.14 536.769L760.14 581.926L769.676 611.763L747.596 639.784L739.387 667.671L687.122 668.041L681.326 698.19L637.168 705.784L590.419 697.023L580.571 705.756L512.415 700.471L510.966 634.145L492.932 610.395L482.713 552.214L498.035 531.95L484.332 490.138L506.304 477.677L548.231 477.677L609.063 465.216L639.751 471.594L670.438 465.511L691.467 444.743L747.481 444.743L775.32 499.453Z" stroke="#222222" stroke-width="1.5"/>
<path d="M732.507 519.58L728.657 545.562L728.657 587.461L726.35 609.12L708.235 629.869L695.298 645.565L660.333 647.502L654.01 670.575L620.079 675.944L584.853 673.136L579.929 669.011L545.851 657.877L544.27 614.514L534.397 592.44L523.249 550.14L533.073 537.851L528.385 514.788L545.004 508.558L571.6 508.558L627.703 502.327L644.489 501.922L661.274 495.286L679.314 484.901L714.847 484.901L732.507 519.58Z" stroke="#222222" stroke-width="1.5"/>
</g>
<defs>
<clipPath id="clip0_69_127">
<rect width="572" height="1246" fill="white" transform="translate(1246) rotate(90)"/>
</clipPath>
</defs>
</svg>
