<svg width="573" height="345" viewBox="0 0 573 345" fill="none" xmlns="http://www.w3.org/2000/svg">
<g clip-path="url(#clip0_150_307)">
<rect width="573" height="345" rx="27" fill="#F3F3F3"/>
<g filter="url(#filter0_d_150_307)">
<circle cx="268.314" cy="146.625" r="41.75" fill="white"/>
</g>
<path d="M266.229 168.957V163.765H270.722V168.957H266.229ZM266.229 133.391V128.177H270.722V133.391H266.229ZM268.701 165.207C266.551 165.207 264.631 164.808 262.94 164.009C261.249 163.21 259.859 162.079 258.77 160.614C257.695 159.135 256.992 157.39 256.663 155.378L261.113 154.646C261.543 156.539 262.46 158.048 263.864 159.172C265.269 160.282 266.953 160.836 268.916 160.836C270.865 160.836 272.449 160.356 273.667 159.394C274.899 158.433 275.515 157.205 275.515 155.711C275.515 154.646 275.2 153.781 274.57 153.115C273.953 152.45 272.943 151.888 271.538 151.429L264.273 149.122C259.973 147.746 257.824 145.084 257.824 141.134C257.824 139.271 258.254 137.651 259.113 136.276C259.988 134.9 261.213 133.835 262.789 133.081C264.366 132.326 266.207 131.949 268.314 131.949C270.335 131.979 272.126 132.363 273.688 133.103C275.265 133.842 276.569 134.907 277.601 136.298C278.647 137.688 279.37 139.36 279.772 141.312L275.193 142.155C274.992 141.016 274.57 140.01 273.925 139.138C273.294 138.265 272.492 137.585 271.517 137.097C270.557 136.608 269.475 136.357 268.271 136.342C267.139 136.313 266.121 136.497 265.218 136.897C264.33 137.281 263.621 137.829 263.09 138.539C262.574 139.234 262.316 140.025 262.316 140.913C262.316 141.889 262.682 142.717 263.413 143.398C264.144 144.078 265.297 144.662 266.874 145.15L272.57 146.859C275.179 147.657 277.063 148.73 278.224 150.076C279.385 151.422 279.965 153.211 279.965 155.445C279.965 157.397 279.492 159.106 278.546 160.57C277.615 162.02 276.304 163.158 274.613 163.987C272.921 164.8 270.951 165.207 268.701 165.207Z" fill="#050505"/>
<g filter="url(#filter1_d_150_307)">
<circle cx="366.75" cy="92.75" r="41.75" fill="white"/>
</g>
<path d="M387 79.029C385.431 79.7267 383.76 80.1855 382.048 80.389C383.865 79.301 385.214 77.6098 385.845 75.629C384.183 76.615 382.345 77.329 380.367 77.703C379.569 76.8506 378.597 76.1698 377.512 75.7043C376.427 75.2388 375.254 74.9989 374.068 75C372.748 75.0131 371.449 75.3165 370.267 75.8874C369.086 76.4583 368.053 77.2819 367.246 78.2963C366.44 79.3106 365.88 80.4894 365.61 81.744C365.339 82.9986 365.365 84.2964 365.685 85.54C362.237 85.3572 358.87 84.4619 355.807 82.9141C352.744 81.3662 350.056 79.2013 347.922 76.564C346.81 78.4552 346.467 80.6831 346.963 82.8076C347.459 84.932 348.756 86.7987 350.6 88.039C349.227 87.9904 347.888 87.6169 346.698 86.951V87.07C346.698 91.218 349.673 94.686 353.61 95.485C352.343 95.8223 351.013 95.8689 349.725 95.621C350.828 99.038 354.013 101.52 357.775 101.588C356.001 102.986 353.956 104.022 351.761 104.635C349.567 105.249 347.267 105.427 345 105.158C348.921 107.67 353.516 109.006 358.213 109C374.068 109 382.712 95.91 382.712 84.571V83.466C384.392 82.259 385.845 80.746 387 79.029V79.029Z" fill="#0094FF"/>
<g filter="url(#filter2_d_150_307)">
<circle cx="504.25" cy="92.2534" r="41.75" fill="white"/>
</g>
<g clip-path="url(#clip1_150_307)">
<path fill-rule="evenodd" clip-rule="evenodd" d="M512.204 72C512.896 77.8185 516.22 81.2874 522 81.6565V88.2007C518.651 88.5206 515.717 87.4503 512.304 85.4329V97.6727C512.304 113.221 494.953 118.08 487.977 106.935C483.494 99.7639 486.239 87.1797 500.619 86.6754V93.5764C499.524 93.7486 498.353 94.0192 497.282 94.3759C494.084 95.4338 492.271 97.4143 492.775 100.908C493.744 107.6 506.311 109.58 505.266 96.504V72.0123H512.204V72Z" fill="#3D3D3D"/>
</g>
<g filter="url(#filter3_d_150_307)">
<circle cx="86.75" cy="175.753" r="41.75" fill="white"/>
</g>
<path d="M92.1163 161.598L92.6814 161.617C94.3094 161.677 95.9016 162.117 97.333 162.903C98.7645 163.69 99.9963 164.8 100.932 166.148C100.744 166.281 95.9967 169.061 96.0532 174.848C96.1285 181.759 102.062 184.063 102.119 184.101C102.081 184.253 101.177 187.376 98.9918 190.593C97.1081 193.373 95.149 196.152 92.0786 196.209C89.0647 196.266 88.0663 194.382 84.6191 194.382C81.1531 194.382 80.0606 196.152 77.1974 196.266C74.24 196.381 71.9607 193.258 70.077 190.479C66.1777 184.805 63.2203 174.449 67.1949 167.443C68.1316 165.752 69.4871 164.337 71.1284 163.335C72.7697 162.334 74.6404 161.781 76.5569 161.731C79.4766 161.674 82.2268 163.711 84.0164 163.711C85.8059 163.711 89.1589 161.255 92.6814 161.617L92.1163 161.598ZM92.7191 150.575C92.9144 153.224 92.0684 155.844 90.3644 157.866C89.5671 158.889 88.5476 159.713 87.3848 160.275C86.2219 160.836 84.947 161.119 83.6585 161.103C83.569 159.824 83.7346 158.539 84.1455 157.326C84.5565 156.113 85.2044 154.995 86.0508 154.04C87.7535 152.066 90.1397 150.826 92.7191 150.575V150.575Z" fill="#4F4F4F"/>
<g filter="url(#filter4_d_150_307)">
<circle cx="158.599" cy="78.6602" r="41.75" fill="white"/>
</g>
<path d="M166.323 60.4589C167.753 60.4095 169.179 60.6521 170.512 61.1719C171.846 61.6916 173.059 62.4776 174.079 63.4819C175.062 64.5015 175.831 65.7078 176.339 67.0295C176.848 68.3512 177.087 69.7614 177.041 71.1769V86.3836C177.041 89.5594 176.003 92.2923 174.018 94.216C171.912 96.16 169.126 97.1966 166.262 97.1016H151.177C148.337 97.1896 145.577 96.1526 143.498 94.216C142.467 93.1836 141.66 91.9499 141.127 90.5919C140.593 89.2339 140.345 87.7806 140.398 86.3226V71.1769C140.398 64.7339 144.673 60.4589 151.116 60.4589H166.323ZM166.399 63.8636H151.177C148.964 63.8636 147.055 64.5201 145.788 65.7721C145.111 66.4933 144.586 67.3437 144.245 68.2723C143.904 69.201 143.754 70.1889 143.803 71.1769V86.3226C143.803 88.6127 144.46 90.4449 145.788 91.7885C147.269 93.0987 149.202 93.7829 151.177 93.6969H166.262C168.238 93.7829 170.17 93.0987 171.652 91.7885C172.363 91.0848 172.92 90.241 173.288 89.3106C173.656 88.3802 173.827 87.3835 173.789 86.3836V71.1769C173.838 69.2114 173.127 67.3027 171.804 65.8484C171.083 65.1713 170.233 64.6465 169.304 64.3055C168.375 63.9645 167.387 63.8142 166.399 63.8636V63.8636ZM158.72 69.2532C163.896 69.2532 168.186 73.5282 168.186 78.7192C168.186 81.2298 167.188 83.6375 165.413 85.4127C163.638 87.1879 161.23 88.1853 158.72 88.1853C156.209 88.1853 153.801 87.1879 152.026 85.4127C150.251 83.6375 149.254 81.2298 149.254 78.7192C149.254 76.2087 150.251 73.8009 152.026 72.0257C153.801 70.2505 156.209 69.2532 158.72 69.2532V69.2532ZM158.72 72.6426C157.115 72.6506 155.578 73.2918 154.443 74.4268C153.308 75.5618 152.666 77.0989 152.658 78.7039C152.666 80.309 153.308 81.8461 154.443 82.9811C155.578 84.1161 157.115 84.7572 158.72 84.7653C160.325 84.7572 161.862 84.1161 162.997 82.9811C164.132 81.8461 164.773 80.309 164.781 78.7039C164.773 77.0989 164.132 75.5618 162.997 74.4268C161.862 73.2918 160.325 72.6506 158.72 72.6426V72.6426ZM168.552 66.8867C169.119 66.8867 169.663 67.1119 170.064 67.5127C170.464 67.9136 170.69 68.4573 170.69 69.0242C170.69 69.591 170.464 70.1347 170.064 70.5356C169.663 70.9364 169.119 71.1616 168.552 71.1616C167.985 71.1616 167.442 70.9364 167.041 70.5356C166.64 70.1347 166.415 69.591 166.415 69.0242C166.415 68.4573 166.64 67.9136 167.041 67.5127C167.442 67.1119 167.985 66.8867 168.552 66.8867Z" fill="url(#paint0_linear_150_307)"/>
<g filter="url(#filter5_d_150_307)">
<circle cx="184.814" cy="241.777" r="41.75" fill="white"/>
</g>
<path d="M185.369 227.229C186.395 227.229 198.485 227.263 201.617 228.085C202.505 228.326 203.314 228.793 203.962 229.438C204.609 230.084 205.072 230.886 205.305 231.764C206.174 235.016 206.174 241.776 206.174 241.776V241.844C206.174 242.58 206.122 248.741 205.305 251.77C205.075 252.651 204.613 253.457 203.965 254.106C203.318 254.755 202.508 255.225 201.617 255.467C198.555 256.288 186.917 256.323 185.438 256.34H185.143C183.664 256.34 172.026 256.288 168.982 255.484C168.089 255.24 167.277 254.768 166.63 254.116C165.982 253.464 165.521 252.654 165.294 251.77C164.563 249.015 164.442 243.727 164.424 242.187V241.331C164.442 239.791 164.563 234.502 165.294 231.747C165.529 230.873 165.994 230.074 166.641 229.431C167.288 228.789 168.095 228.324 168.982 228.085C172.113 227.246 184.203 227.212 185.23 227.212L185.369 227.229ZM181.02 235.615V247.903L191.945 241.776L181.02 235.632V235.615Z" fill="#FF0000"/>
<g filter="url(#filter6_d_150_307)">
<circle cx="312.006" cy="256.34" r="41.75" fill="white"/>
</g>
<path d="M312.26 274.789H311.75C309.338 274.789 307.774 273.702 306.279 272.648C305.26 271.924 304.274 271.249 303.119 271.051C302.569 270.963 302.012 270.919 301.454 270.92C300.485 270.92 299.721 271.084 299.16 271.183C298.82 271.249 298.514 271.298 298.311 271.298C298.056 271.298 297.801 271.249 297.699 270.887C297.614 270.558 297.529 270.245 297.478 269.948C297.308 269.175 297.172 268.697 296.849 268.631C293.009 268.055 291.922 267.248 291.684 266.689C291.647 266.611 291.624 266.527 291.616 266.442C291.616 266.228 291.752 266.03 291.973 265.997C297.869 265.042 300.502 259.083 300.621 258.836V258.819C300.995 258.095 301.063 257.469 300.842 256.942C300.434 256.004 299.109 255.592 298.243 255.312L297.665 255.131C295.932 254.44 295.796 253.748 295.847 253.386C295.966 252.777 296.781 252.365 297.444 252.365C297.631 252.365 297.784 252.398 297.92 252.448C298.718 252.81 299.415 253.008 300.027 253.008C300.876 253.008 301.233 252.645 301.284 252.612L301.199 251.378C301.029 248.612 300.808 245.204 301.692 243.245C302.505 241.358 303.88 239.749 305.642 238.623C307.403 237.497 309.47 236.905 311.58 236.923H312.413C314.061 236.923 319.668 237.384 322.318 243.245C323.202 245.187 322.981 248.612 322.811 251.378V251.493L322.726 252.612C322.777 252.645 323.117 252.975 323.882 252.991C324.459 252.991 325.122 252.793 325.853 252.448C326.046 252.367 326.254 252.328 326.464 252.333C326.719 252.333 326.974 252.382 327.178 252.464C327.773 252.678 328.163 253.09 328.18 253.518C328.18 253.929 327.874 254.522 326.345 255.131L325.768 255.312C324.901 255.592 323.576 256.004 323.168 256.959C322.947 257.453 323.015 258.095 323.389 258.819C323.508 259.083 326.141 265.042 332.037 265.997C332.258 266.03 332.411 266.228 332.394 266.442C332.394 266.524 332.36 266.606 332.326 266.689C332.088 267.248 331.001 268.055 327.161 268.631C326.855 268.681 326.719 269.092 326.532 269.948C326.47 270.258 326.396 270.566 326.311 270.87C326.226 271.134 326.056 271.265 325.768 271.265H325.717C325.513 271.265 325.207 271.233 324.867 271.167C323.559 270.899 322.213 270.86 320.891 271.051C319.736 271.249 318.767 271.924 317.731 272.648C316.236 273.702 314.673 274.789 312.26 274.789V274.789Z" fill="#D7F431"/>
<g filter="url(#filter7_d_150_307)">
<circle cx="435.314" cy="214.59" r="41.75" fill="white"/>
</g>
<path d="M435.781 188.375C429.658 188.363 423.718 190.463 418.961 194.321C414.204 198.18 410.921 203.561 409.665 209.559C408.409 215.556 409.257 221.804 412.066 227.249C414.874 232.694 419.472 237.005 425.085 239.454C425.019 237.566 425.085 235.345 425.551 233.324L428.991 218.8C428.991 218.8 428.125 217.09 428.125 214.581C428.125 210.628 430.411 207.696 433.274 207.696C435.692 207.696 436.868 209.495 436.868 211.694C436.868 214.114 435.315 217.756 434.516 221.132C433.85 223.952 435.914 226.262 438.71 226.262C443.747 226.262 447.142 219.777 447.142 212.093C447.142 206.253 443.215 201.878 436.069 201.878C434.361 201.811 432.656 202.094 431.059 202.708C429.463 203.321 428.008 204.254 426.783 205.449C425.558 206.643 424.589 208.075 423.935 209.656C423.281 211.238 422.955 212.936 422.977 214.647C422.977 216.979 423.643 218.6 424.708 219.866C425.218 220.466 425.285 220.688 425.107 221.354L424.553 223.508C424.375 224.174 423.843 224.397 423.221 224.174C419.516 222.642 417.763 218.578 417.763 213.981C417.763 206.43 424.153 197.325 436.802 197.325C446.965 197.325 453.666 204.698 453.666 212.604C453.666 223.042 447.853 230.859 439.287 230.859C436.402 230.859 433.717 229.305 432.785 227.528L430.921 234.857C430.344 236.922 429.235 238.987 428.236 240.586C432.209 241.766 436.402 242 440.481 241.271C444.56 240.542 448.412 238.869 451.731 236.387C455.051 233.904 457.744 230.68 459.598 226.971C461.452 223.263 462.415 219.172 462.409 215.025C462.409 207.957 459.604 201.179 454.61 196.181C449.616 191.183 442.843 188.375 435.781 188.375V188.375Z" fill="#FF2B5E"/>
</g>
<defs>
<filter id="filter0_d_150_307" x="187.727" y="85.4566" width="161.174" height="161.174" filterUnits="userSpaceOnUse" color-interpolation-filters="sRGB">
<feFlood flood-opacity="0" result="BackgroundImageFix"/>
<feColorMatrix in="SourceAlpha" type="matrix" values="0 0 0 0 0 0 0 0 0 0 0 0 0 0 0 0 0 0 127 0" result="hardAlpha"/>
<feOffset dy="19.4186"/>
<feGaussianBlur stdDeviation="19.4186"/>
<feColorMatrix type="matrix" values="0 0 0 0 0 0 0 0 0 0 0 0 0 0 0 0 0 0 0.05 0"/>
<feBlend mode="normal" in2="BackgroundImageFix" result="effect1_dropShadow_150_307"/>
<feBlend mode="normal" in="SourceGraphic" in2="effect1_dropShadow_150_307" result="shape"/>
</filter>
<filter id="filter1_d_150_307" x="286.163" y="31.5814" width="161.174" height="161.174" filterUnits="userSpaceOnUse" color-interpolation-filters="sRGB">
<feFlood flood-opacity="0" result="BackgroundImageFix"/>
<feColorMatrix in="SourceAlpha" type="matrix" values="0 0 0 0 0 0 0 0 0 0 0 0 0 0 0 0 0 0 127 0" result="hardAlpha"/>
<feOffset dy="19.4186"/>
<feGaussianBlur stdDeviation="19.4186"/>
<feColorMatrix type="matrix" values="0 0 0 0 0 0 0 0 0 0 0 0 0 0 0 0 0 0 0.05 0"/>
<feBlend mode="normal" in2="BackgroundImageFix" result="effect1_dropShadow_150_307"/>
<feBlend mode="normal" in="SourceGraphic" in2="effect1_dropShadow_150_307" result="shape"/>
</filter>
<filter id="filter2_d_150_307" x="423.663" y="31.0848" width="161.174" height="161.174" filterUnits="userSpaceOnUse" color-interpolation-filters="sRGB">
<feFlood flood-opacity="0" result="BackgroundImageFix"/>
<feColorMatrix in="SourceAlpha" type="matrix" values="0 0 0 0 0 0 0 0 0 0 0 0 0 0 0 0 0 0 127 0" result="hardAlpha"/>
<feOffset dy="19.4186"/>
<feGaussianBlur stdDeviation="19.4186"/>
<feColorMatrix type="matrix" values="0 0 0 0 0 0 0 0 0 0 0 0 0 0 0 0 0 0 0.05 0"/>
<feBlend mode="normal" in2="BackgroundImageFix" result="effect1_dropShadow_150_307"/>
<feBlend mode="normal" in="SourceGraphic" in2="effect1_dropShadow_150_307" result="shape"/>
</filter>
<filter id="filter3_d_150_307" x="6.16279" y="114.585" width="161.174" height="161.174" filterUnits="userSpaceOnUse" color-interpolation-filters="sRGB">
<feFlood flood-opacity="0" result="BackgroundImageFix"/>
<feColorMatrix in="SourceAlpha" type="matrix" values="0 0 0 0 0 0 0 0 0 0 0 0 0 0 0 0 0 0 127 0" result="hardAlpha"/>
<feOffset dy="19.4186"/>
<feGaussianBlur stdDeviation="19.4186"/>
<feColorMatrix type="matrix" values="0 0 0 0 0 0 0 0 0 0 0 0 0 0 0 0 0 0 0.05 0"/>
<feBlend mode="normal" in2="BackgroundImageFix" result="effect1_dropShadow_150_307"/>
<feBlend mode="normal" in="SourceGraphic" in2="effect1_dropShadow_150_307" result="shape"/>
</filter>
<filter id="filter4_d_150_307" x="78.0117" y="17.4916" width="161.174" height="161.174" filterUnits="userSpaceOnUse" color-interpolation-filters="sRGB">
<feFlood flood-opacity="0" result="BackgroundImageFix"/>
<feColorMatrix in="SourceAlpha" type="matrix" values="0 0 0 0 0 0 0 0 0 0 0 0 0 0 0 0 0 0 127 0" result="hardAlpha"/>
<feOffset dy="19.4186"/>
<feGaussianBlur stdDeviation="19.4186"/>
<feColorMatrix type="matrix" values="0 0 0 0 0 0 0 0 0 0 0 0 0 0 0 0 0 0 0.05 0"/>
<feBlend mode="normal" in2="BackgroundImageFix" result="effect1_dropShadow_150_307"/>
<feBlend mode="normal" in="SourceGraphic" in2="effect1_dropShadow_150_307" result="shape"/>
</filter>
<filter id="filter5_d_150_307" x="104.227" y="180.608" width="161.174" height="161.174" filterUnits="userSpaceOnUse" color-interpolation-filters="sRGB">
<feFlood flood-opacity="0" result="BackgroundImageFix"/>
<feColorMatrix in="SourceAlpha" type="matrix" values="0 0 0 0 0 0 0 0 0 0 0 0 0 0 0 0 0 0 127 0" result="hardAlpha"/>
<feOffset dy="19.4186"/>
<feGaussianBlur stdDeviation="19.4186"/>
<feColorMatrix type="matrix" values="0 0 0 0 0 0 0 0 0 0 0 0 0 0 0 0 0 0 0.05 0"/>
<feBlend mode="normal" in2="BackgroundImageFix" result="effect1_dropShadow_150_307"/>
<feBlend mode="normal" in="SourceGraphic" in2="effect1_dropShadow_150_307" result="shape"/>
</filter>
<filter id="filter6_d_150_307" x="231.419" y="195.172" width="161.174" height="161.174" filterUnits="userSpaceOnUse" color-interpolation-filters="sRGB">
<feFlood flood-opacity="0" result="BackgroundImageFix"/>
<feColorMatrix in="SourceAlpha" type="matrix" values="0 0 0 0 0 0 0 0 0 0 0 0 0 0 0 0 0 0 127 0" result="hardAlpha"/>
<feOffset dy="19.4186"/>
<feGaussianBlur stdDeviation="19.4186"/>
<feColorMatrix type="matrix" values="0 0 0 0 0 0 0 0 0 0 0 0 0 0 0 0 0 0 0.05 0"/>
<feBlend mode="normal" in2="BackgroundImageFix" result="effect1_dropShadow_150_307"/>
<feBlend mode="normal" in="SourceGraphic" in2="effect1_dropShadow_150_307" result="shape"/>
</filter>
<filter id="filter7_d_150_307" x="354.727" y="153.422" width="161.174" height="161.174" filterUnits="userSpaceOnUse" color-interpolation-filters="sRGB">
<feFlood flood-opacity="0" result="BackgroundImageFix"/>
<feColorMatrix in="SourceAlpha" type="matrix" values="0 0 0 0 0 0 0 0 0 0 0 0 0 0 0 0 0 0 127 0" result="hardAlpha"/>
<feOffset dy="19.4186"/>
<feGaussianBlur stdDeviation="19.4186"/>
<feColorMatrix type="matrix" values="0 0 0 0 0 0 0 0 0 0 0 0 0 0 0 0 0 0 0.05 0"/>
<feBlend mode="normal" in2="BackgroundImageFix" result="effect1_dropShadow_150_307"/>
<feBlend mode="normal" in="SourceGraphic" in2="effect1_dropShadow_150_307" result="shape"/>
</filter>
<linearGradient id="paint0_linear_150_307" x1="112.013" y1="21.7284" x2="163.744" y2="87.0574" gradientUnits="userSpaceOnUse">
<stop stop-color="#7F5FFF"/>
<stop offset="1" stop-color="#FF4F4F"/>
</linearGradient>
<clipPath id="clip0_150_307">
<rect width="573" height="345" fill="white"/>
</clipPath>
<clipPath id="clip1_150_307">
<rect width="36" height="41" fill="white" transform="translate(486 72)"/>
</clipPath>
</defs>
</svg>
